# xmcd
#
# Track frame offsets: 
#        150
#        13213
#        31374
#        48705
#        58069
#        68538
#        82196
#        98652
#        115006
#        127172
#        144143
#        158190
#        174550
#        188454
#        201522
#        213869
#        222657
#        232945
#        245818
#        260236
#        276407
#        286656
#        298344
#        307314
#        331668
#
# Disc length: 4540 seconds
#
# Revision: 0
# Processed by: cddbd v1.5.2PL0 Copyright (c) Steve Scherf et al.
# Submitted via: ExactAudioCopy v1.0b3
#
DISCID=8b11ba19
DTITLE=Greenhorns - Zlatá éra 1975 - 1991 [CD 1)
DYEAR=2010
DGENRE=Country
TTITLE0=Dálnice
TTITLE1=Cadillac 
TTITLE2=Dívka s vlasem medovým
TTITLE3=Banjo má pět strun
TTITLE4=Blues prázdného motelu
TTITLE5=Matčiny růže
TTITLE6=Cítím vůni vlasů tvých
TTITLE7=Netoužím po lustrech z křišťálu
TTITLE8=Rozmarná kráska
TTITLE9=Řidič tvrdý chleba má
TTITLE10=Poslední rallye
TTITLE11=Dívka, co se smála jak Chaplinův kid
TTITLE12=Zbyl mi jen tvůj mokasín
TTITLE13=Toulám se zas dál
TTITLE14=Fidlací song
TTITLE15=Jak pytlák Říha
TTITLE16=Hej, strojvůdče
TTITLE17=Pivní džíp
TTITLE18=Cesta k Hoganový soutěsce
TTITLE19=Bobův hrob
TTITLE20=Chajda kůrová
TTITLE21=Bluy Brink
TTITLE22=Kde našli muži hrob
TTITLE23=Johnsonův protijed
TTITLE24=Dělová koule
EXTD=
EXTT0=
EXTT1=
EXTT2=
EXTT3=
EXTT4=
EXTT5=
EXTT6=
EXTT7=
EXTT8=
EXTT9=
EXTT10=
EXTT11=
EXTT12=
EXTT13=
EXTT14=
EXTT15=
EXTT16=
EXTT17=
EXTT18=
EXTT19=
EXTT20=
EXTT21=
EXTT22=
EXTT23=
EXTT24=
PLAYORDER=
